<svg xmlns="http://www.w3.org/2000/svg" xmlns:xlink="http://www.w3.org/1999/xlink" preserveAspectRatio="xMidYMid" width="19" height="21" viewBox="0 0 19 21">
  <defs>
    <style>
      .cls-1 {
        fill: #bdc3c7;
        filter: url(#color-overlay-1);
        opacity: 0.7;
        fill-rule: evenodd;
      }
    </style>

    <filter id="color-overlay-1" filterUnits="userSpaceOnUse">
      <feFlood flood-color="#b7bacd"/>
      <feComposite operator="in" in2="SourceGraphic"/>
      <feBlend in2="SourceGraphic" result="solidFill"/>
    </filter>
  </defs>
  <path d="M18.993,11.308 C18.993,13.986 16.868,16.157 14.246,16.157 C12.692,16.157 11.332,15.382 10.472,14.200 L10.449,14.217 L9.500,12.924 L8.550,14.217 L8.537,14.207 C7.671,15.384 6.306,16.157 4.753,16.157 C2.132,16.157 0.007,13.986 0.007,11.308 C0.007,10.216 0.373,9.218 0.969,8.408 L0.956,8.398 C0.956,8.398 7.918,-0.008 9.500,-0.008 C11.082,-0.008 18.043,8.398 18.043,8.398 L18.030,8.408 C18.626,9.218 18.993,10.216 18.993,11.308 ZM7.918,17.773 L7.918,16.157 C7.918,15.265 8.626,14.540 9.500,14.540 C10.374,14.540 11.082,15.265 11.082,16.157 L11.082,17.773 C11.956,17.773 12.664,18.497 12.664,19.390 C12.664,20.282 11.956,21.007 11.082,21.007 L7.918,21.007 C7.044,21.007 6.336,20.282 6.336,19.390 C6.336,18.497 7.044,17.773 7.918,17.773 Z" class="cls-1"/>
</svg>
