<svg xmlns="http://www.w3.org/2000/svg" xmlns:xlink="http://www.w3.org/1999/xlink" preserveAspectRatio="xMidYMid" width="20" height="20" viewBox="0 0 20 20">
  <defs>
    <style>
      .cls-1 {
        fill: #bdc3c7;
        filter: url(#color-overlay-1);
        opacity: 0.7;
        fill-rule: evenodd;
      }
    </style>

    <filter id="color-overlay-1" filterUnits="userSpaceOnUse">
      <feFlood flood-color="#b7bacd"/>
      <feComposite operator="in" in2="SourceGraphic"/>
      <feBlend in2="SourceGraphic" result="solidFill"/>
    </filter>
  </defs>
  <path d="M19.946,7.765 L19.970,7.771 L17.470,19.021 L17.446,19.015 C17.321,19.574 16.846,19.999 16.250,19.999 L3.750,19.999 C3.154,19.999 2.679,19.574 2.554,19.015 L2.530,19.021 L0.030,7.771 L0.054,7.765 C0.034,7.677 -0.000,7.594 -0.000,7.500 C-0.000,6.809 0.560,6.250 1.250,6.250 L3.750,6.250 C3.750,2.798 6.548,-0.001 10.000,-0.001 C13.452,-0.001 16.250,2.798 16.250,6.250 L18.750,6.250 C19.440,6.250 20.000,6.809 20.000,7.500 C20.000,7.594 19.966,7.677 19.946,7.765 ZM10.000,2.499 C7.929,2.499 6.250,4.178 6.250,6.250 L13.750,6.250 C13.750,4.178 12.071,2.499 10.000,2.499 ZM15.000,11.250 C14.310,11.250 13.750,10.690 13.750,9.999 L13.750,8.750 L6.250,8.750 L6.250,9.999 C6.250,10.690 5.690,11.250 5.000,11.250 C4.310,11.250 3.750,10.690 3.750,9.999 L3.750,8.750 L2.808,8.750 L4.753,17.499 L15.247,17.499 L17.192,8.750 L16.250,8.750 L16.250,9.999 C16.250,10.690 15.690,11.250 15.000,11.250 Z" class="cls-1"/>
</svg>
