<svg xmlns="http://www.w3.org/2000/svg" xmlns:xlink="http://www.w3.org/1999/xlink" preserveAspectRatio="xMidYMid" width="22.375" height="22.375" viewBox="0 0 22.375 22.375">
  <defs>
    <style>
      .cls-1 {
        fill: #bdc3c7;
        filter: url(#color-overlay-1);
        fill-rule: evenodd;
      }
    </style>

    <filter id="color-overlay-1" filterUnits="userSpaceOnUse">
      <feFlood flood-color="#fff"/>
      <feComposite operator="in" in2="SourceGraphic"/>
      <feBlend in2="SourceGraphic" result="solidFill"/>
    </filter>
  </defs>
  <path d="M19.587,18.186 L15.967,18.186 L12.177,21.976 L12.177,21.976 C11.923,22.230 11.573,22.387 11.187,22.387 C10.800,22.387 10.450,22.230 10.197,21.976 L10.197,21.976 L6.407,18.186 L2.787,18.186 C1.240,18.186 -0.013,16.933 -0.013,15.387 L-0.013,2.786 C-0.013,1.240 1.240,-0.013 2.787,-0.013 L19.587,-0.013 C21.133,-0.013 22.387,1.240 22.387,2.786 L22.387,15.387 C22.387,16.933 21.133,18.186 19.587,18.186 ZM19.587,4.186 C19.587,3.413 18.960,2.786 18.187,2.786 L4.187,2.786 C3.413,2.786 2.787,3.413 2.787,4.186 L2.787,13.986 C2.787,14.759 3.413,15.387 4.187,15.387 L5.587,15.387 L6.987,15.387 C7.373,15.387 7.723,15.543 7.977,15.797 L7.977,15.797 L11.187,19.006 L14.397,15.797 L14.397,15.797 C14.650,15.543 15.000,15.387 15.387,15.387 L16.787,15.387 L18.187,15.387 C18.960,15.387 19.587,14.759 19.587,13.986 L19.587,4.186 ZM15.387,12.586 L6.987,12.586 C6.213,12.586 5.587,11.960 5.587,11.186 C5.587,10.413 6.213,9.786 6.987,9.786 L15.387,9.786 C16.160,9.786 16.787,10.413 16.787,11.186 C16.787,11.960 16.160,12.586 15.387,12.586 ZM15.387,8.386 L6.987,8.386 C6.213,8.386 5.587,7.760 5.587,6.986 C5.587,6.213 6.213,5.586 6.987,5.586 L15.387,5.586 C16.160,5.586 16.787,6.213 16.787,6.986 C16.787,7.760 16.160,8.386 15.387,8.386 Z" class="cls-1"/>
</svg>
